<?xml version="1.0" encoding="UTF-8" standalone="no"?>
<svg
   xmlns:dc="http://purl.org/dc/elements/1.1/"
   xmlns:cc="http://creativecommons.org/ns#"
   xmlns:rdf="http://www.w3.org/1999/02/22-rdf-syntax-ns#"
   xmlns:svg="http://www.w3.org/2000/svg"
   xmlns="http://www.w3.org/2000/svg"
   xmlns:sodipodi="http://sodipodi.sourceforge.net/DTD/sodipodi-0.dtd"
   xmlns:inkscape="http://www.inkscape.org/namespaces/inkscape"
   width="69.126503mm"
   height="22.176699mm"
   viewBox="0 0 69.126503 22.176699"
   version="1.1"
   id="svg8"
   inkscape:version="1.0.1 (3bc2e813f5, 2020-09-07)"
   sodipodi:docname="paymunity.svg">
  <defs
     id="defs2">
    <rect
       x="16.023624"
       y="129.25777"
       width="48.813271"
       height="19.200169"
       id="rect852" />
  </defs>
  <sodipodi:namedview
     id="base"
     pagecolor="#ffffff"
     bordercolor="#666666"
     borderopacity="1.0"
     inkscape:pageopacity="0.0"
     inkscape:pageshadow="2"
     inkscape:zoom="2"
     inkscape:cx="87.505061"
     inkscape:cy="15.79519"
     inkscape:document-units="mm"
     inkscape:current-layer="layer1"
     inkscape:document-rotation="0"
     showgrid="false"
     inkscape:window-width="1920"
     inkscape:window-height="973"
     inkscape:window-x="0"
     inkscape:window-y="27"
     inkscape:window-maximized="1" />
  <metadata
     id="metadata5">
    <rdf:RDF>
      <cc:Work
         rdf:about="">
        <dc:format>image/svg+xml</dc:format>
        <dc:type
           rdf:resource="http://purl.org/dc/dcmitype/StillImage" />
        <dc:title></dc:title>
      </cc:Work>
    </rdf:RDF>
  </metadata>
  <g
     inkscape:groupmode="layer"
     id="layer2"
     inkscape:label="Ebene 2"
     sodipodi:insensitive="true"
     transform="translate(-44.30272,-103.19303)">
    <path
       style="fill:#84ff84;fill-opacity:0.502858;stroke:#000000;stroke-width:0.264583px;stroke-linecap:butt;stroke-linejoin:miter;stroke-opacity:1"
       d="m 45.43522,118.73231 4.724197,-3.64467 6.404022,-4.03923 5.633797,-3.02426 8.242424,-2.68537 5.452488,-0.7134 6.556807,0.14147 4.025066,0.3744 7.181199,1.72618 5.195933,1.34497 7.795457,1.61804 -2.69151,2.41473 -4.081441,3.33869 -4.865765,3.21099 -7.299041,2.96751 -6.694133,1.57424 -7.285818,1.06684 -6.701118,-0.46303 c 0,0 -1.287264,-1.68803 -3.484909,-1.65284 -2.197645,0.0352 -6.952975,-0.76991 -6.952975,-0.76991 z"
       id="path1051" />
  </g>
  <g
     inkscape:label="Ebene 1"
     inkscape:groupmode="layer"
     id="layer1"
     transform="translate(-44.30272,-103.19303)">
    <path
       style="fill:none;stroke:#37a04a;stroke-width:2.265;stroke-linecap:round;stroke-linejoin:miter;stroke-miterlimit:4;stroke-dasharray:none;stroke-opacity:1"
       d="m 106.64661,109.83044 c 0,0 -19.13471,18.39673 -40.169517,13.60142 -21.034796,-4.79531 -21.041873,-4.69955 -21.041873,-4.69955"
       id="path833" />
    <path
       style="fill:none;stroke:#37a04a;stroke-width:2.265;stroke-linecap:round;stroke-linejoin:miter;stroke-miterlimit:4;stroke-dasharray:none;stroke-opacity:1"
       d="m 45.43522,118.73231 c 0,0 19.13471,-18.39673 40.169522,-13.60142 21.034798,4.79532 21.041868,4.69955 21.041868,4.69955"
       id="path833-3" />
    <text
       xml:space="preserve"
       id="text850"
       style="font-style:normal;font-weight:normal;font-size:10.5833px;line-height:1.25;font-family:sans-serif;white-space:pre;shape-inside:url(#rect852);fill:#37a04a;fill-opacity:1;stroke:none;"
       transform="matrix(1.4692552,0,0,1.6207588,33.525318,-107.912)"><tspan
         x="16.023438"
         y="138.62155"><tspan
           style="font-style:normal;font-variant:normal;font-weight:normal;font-stretch:normal;font-family:'Southern Aire Personal Use Only';-inkscape-font-specification:'Southern Aire Personal Use Only';fill:#37a04a;fill-opacity:1">paymunity</tspan></tspan></text>
    <path
       id="rect858"
       style="opacity:1;fill:#37a04a;fill-opacity:1;stroke:none;stroke-width:0.865;stroke-linecap:butt;stroke-linejoin:round;stroke-miterlimit:4;stroke-dasharray:none;stroke-opacity:1"
       d="m 101.49089,109.70446 10.76337,-0.96416 1.17496,1.42694 -8.54091,0.1908 z"
       sodipodi:nodetypes="ccccc" />
    <path
       style="fill:none;stroke:#37a04a;stroke-width:1.17972;stroke-linecap:butt;stroke-linejoin:miter;stroke-miterlimit:4;stroke-dasharray:none;stroke-opacity:0.7764706"
       d="m 65.161712,120.02071 c 0,0 -0.596849,1.38578 -1.093745,2.01872 -0.496892,0.63293 -0.496747,0.62554 -0.496747,0.62554"
       id="path867" />
  </g>
</svg>
